# xmcd
# 
# Track frame offsets:
#     182
#     42495
#     88997
#     126442
#     169542
#     210255
# 
# Disc length: 3226
# 
# Revision: 8
# Processed by: cddbd v1.5.2PL0 Copyright (c) Steve Scherf et al.
# Submitted via: fre:ac v1.0.17
# 
DISCID=4e0c9806
DTITLE=Sonny Clark - Cool Struttin'
DYEAR=1958
DGENRE=Jazz
TTITLE0=Cool Struttin'
TTITLE1=Blue Minor
TTITLE2=Sippin' At Bells
TTITLE3=Deep Night
TTITLE4=Royal Flush
TTITLE5=Lover
EXTD=w/ Art Farmer - trumpet\nJackie McLean: alto sax\nPaul Chambers: bass\nPhilly Joe Jones: drums\n1958 Blue Note date - Issued on CD in 1987 YEAR: 1958
EXTT0=
EXTT1=
EXTT2=
EXTT3=
EXTT4=
EXTT5=
PLAYORDER=
